<svg width="588" height="167" viewBox="0 0 588 167" fill="none" xmlns="http://www.w3.org/2000/svg">
<g clip-path="url(#clip0_134_134)">
<path d="M83.1 54.7C97 54.7 108.9 64.8 111 78.6L123.1 66.5L153.5 36.1L130 12.6L99.6 42.9V0H66.4V60.1C71.3 56.6 77.1 54.7 83.1 54.7ZM104.1 47.4L130 21.6L144.5 36.1L118.7 61.9L113.8 66.8C110.6 60.6 105.5 55.6 99.3 52.3L104.1 47.4ZM93.4 6.4V50C86.7 48 79.6 48 72.9 50.1V6.3C72.8 6.3 93.4 6.3 93.4 6.4Z" fill="white"/>
<path d="M111 87.5C108.6 102.9 94 113.5 78.6 111C74.2 110.3 70 108.6 66.4 106V166.1H99.6V123.1L130 153.5L153.5 130L123.1 99.6L111 87.5ZM93.4 123.1V159.7H72.8V116.1C79.5 118.2 86.6 118.2 93.3 116.2V123.1H93.4ZM130 144.5L104.2 118.6L99.3 113.7C105.5 110.5 110.5 105.4 113.8 99.2L118.7 104.1L144.6 129.9L130 144.5Z" fill="white"/>
<path d="M12.6 36.1L43 66.5H0V99.7H42.9L12.6 130L36.1 153.5L60.1 129.5V99.7C52.9 89.8 52.9 76.3 60.1 66.4V36.7L36 12.6L12.6 36.1Z" fill="white"/>
<path d="M166.4 66.8C166.4 55 173.6 47.3 184.3 47.3C195 47.3 202.2 55.1 202.2 66.8C202.2 78.5 195 86.3 184.3 86.3C173.6 86.3 166.4 78.5 166.4 66.8ZM195.4 66.8C195.4 58.7 191.1 53.6 184.2 53.6C177.3 53.6 173 58.6 173 66.8C173 74.9 177.3 79.9 184.2 79.9C191.1 79.9 195.4 74.8 195.4 66.8Z" fill="white"/>
<path d="M234.4 72.3C234.4 80.9 229.7 86 223.2 86C220.2 86 217.2 84.8 215.6 82.8V96.4H209.2V59H215.6V61.6C217.4 59.3 220.4 58.4 223.2 58.4C230.5 58.5 234.4 64.3 234.4 72.3ZM228 72.2C228 67 226 64.1 221.7 64.1C217 64.1 215 67.5 215 72.2C215 76.8 217 80.4 221.6 80.4C225.9 80.4 228 77.4 228 72.2Z" fill="white"/>
<path d="M263.5 74.4H245.4C245.7 77.9 247.8 80.2 252 80.2C254.4 80.2 256.5 79.4 258.3 77.4L262.8 81.3C259.9 84.5 256.4 86.1 252 86.1C242.9 86.1 239 79.5 239 72.5C239 65.6 242.8 58.6 251.6 58.6C259.8 58.6 263.8 64.7 263.8 72C263.6 72.7 263.6 73.5 263.5 74.4ZM257.4 69.3C257.3 65.9 254.7 63.9 251.3 63.9C247.4 63.9 245.6 66.7 245.2 69.3H257.4Z" fill="white"/>
<path d="M294.8 68.4V85.5H288.4V70C288.4 68.2 288.4 64.1 283.5 64.1C277.5 64.1 277.5 70.2 277.5 74.9V85.5H271V59H277.4V62.1C279.3 59.6 282.2 58.5 285.4 58.5C291.4 58.5 294.8 62.1 294.8 68.4Z" fill="white"/>
<path d="M343.1 85.5L332 66.9L324.9 74.1V85.5H318.2V48.1H324.9V65.7L341.7 48.1H350.5L336.6 62.3L350.9 85.6H343.1V85.5Z" fill="white"/>
<path d="M379.3 68.4V85.5H372.9V70C372.9 68.2 372.9 64.1 368 64.1C362 64.1 362 70.2 362 74.9V85.5H355.6V59H362V62.1C363.9 59.6 366.8 58.5 370 58.5C375.9 58.5 379.3 62.1 379.3 68.4Z" fill="white"/>
<path d="M381.9 72.2C381.9 64.7 386.9 58.5 395.2 58.5C403.4 58.5 408.5 64.7 408.5 72.2C408.5 79.7 403.4 86 395.2 86C387 86 381.9 79.7 381.9 72.2ZM402 72.2C402 67.9 400.1 64.1 395.2 64.1C390.3 64.1 388.4 67.9 388.4 72.2C388.4 76.5 390.3 80.4 395.2 80.4C400.1 80.4 402 76.5 402 72.2Z" fill="white"/>
<path d="M411.3 59H418.2L422.7 75.6L427.7 59H433.2L438.2 75.5L442.8 59H449.7L441.5 85.5H435.7L430.5 68.2L425.3 85.5H419.5L411.3 59Z" fill="white"/>
<path d="M455.7 79.1V48.1H462.1V78.8C462.1 80 462.8 80.5 464 80.5C464.6 80.5 465.3 80.4 466 80.2V85.4C464.6 85.9 463.1 86.2 461.9 86.2C458.3 86 455.7 83.9 455.7 79.1Z" fill="white"/>
<path d="M493.7 74.4H475.6C475.9 77.9 478 80.2 482.2 80.2C484.6 80.2 486.7 79.4 488.5 77.4L493 81.3C490.1 84.5 486.6 86.1 482.2 86.1C473.1 86.1 469.2 79.5 469.2 72.5C469.2 65.6 473 58.6 481.8 58.6C490 58.6 494 64.7 494 72C493.9 72.7 493.8 73.5 493.7 74.4ZM487.7 69.3C487.6 65.9 485 63.9 481.6 63.9C477.7 63.9 475.9 66.7 475.5 69.3H487.7Z" fill="white"/>
<path d="M524.3 48.1V85.5H517.9V82.9C516.1 85.2 513.1 86.1 510.3 86.1C503.1 86.1 499.1 80.2 499.1 72.3C499.1 63.7 503.8 58.6 510.3 58.6C513.3 58.6 516.3 59.8 517.9 61.8V48.1H524.3ZM518.5 72.3C518.5 67.9 516.5 64.4 511.9 64.4C507.6 64.4 505.6 67.4 505.6 72.3C505.6 77.2 507.6 80.1 511.9 80.1C516.5 80.1 518.5 76.7 518.5 72.3Z" fill="white"/>
<path d="M555.6 89.1C555.6 94.6 550.6 97 543.4 97C535.5 97 531 94.1 531 88.6C531 88 531.1 87.7 531.1 87.4L534.9 85C533 84 531.7 82.3 531.7 79.6C531.7 77.3 532.6 75.6 534.2 74.3C532.9 72.6 532.1 70.5 532.1 68.2C532.1 62.5 537 58.5 542.9 58.5C545.2 58.5 547.4 59.1 549.1 60.2L553.1 56.8L556.5 60.9L552.7 64C553.4 65.3 553.8 66.9 553.8 68.6C553.8 74.5 548.9 78.3 543.1 78.3C541.3 78.3 539.6 77.9 538 77.3C537.5 77.6 537.2 78.1 537.2 78.7C537.2 80.6 539.9 81.2 543.2 81.6C548.6 82.2 555.6 82.7 555.6 89.1ZM549.1 89.7C549.1 87.7 545.7 87.4 541.9 86.9L539.7 86.6L537.4 88.8C537.3 89 537.3 89.1 537.3 89.2C537.3 91.5 540.6 92.2 543.6 92.2C546.4 92.1 549.1 91.5 549.1 89.7ZM538.5 68.4C538.5 70.9 540 73 543 73C546 73 547.4 71 547.4 68.4C547.4 65.7 545.7 63.9 543 63.9C540.3 63.9 538.5 65.7 538.5 68.4Z" fill="white"/>
<path d="M583.4 74.4H565.3C565.6 77.9 567.7 80.2 571.9 80.2C574.3 80.2 576.4 79.4 578.2 77.4L582.7 81.3C579.8 84.5 576.3 86.1 571.9 86.1C562.8 86.1 558.9 79.5 558.9 72.5C558.9 65.6 562.7 58.6 571.5 58.6C579.7 58.6 583.7 64.7 583.7 72C583.6 72.7 583.5 73.5 583.4 74.4ZM577.4 69.3C577.3 65.9 574.7 63.9 571.3 63.9C567.4 63.9 565.6 66.7 565.2 69.3H577.4Z" fill="white"/>
<path d="M170.1 107.8H179V109.9H172.3V112.9H178.2V115H172.3V120.4H170V107.8H170.1Z" fill="white"/>
<path d="M179.8 114.1C179.8 110.1 182.2 107.5 185.8 107.5C189.4 107.5 191.8 110.1 191.8 114.1C191.8 118 189.4 120.7 185.8 120.7C182.3 120.7 179.8 118.1 179.8 114.1ZM189.6 114.1C189.6 111.4 188.1 109.7 185.8 109.7C183.5 109.7 182 111.4 182 114.1C182 116.8 183.5 118.5 185.8 118.5C188.1 118.5 189.6 116.8 189.6 114.1Z" fill="white"/>
<path d="M202.1 120.4L199.1 115.2H198.3H197.5V120.4H195.3V107.8H199.4C202.4 107.8 203.7 109.2 203.7 111.4C203.7 113.2 202.9 114.4 201.4 114.9L204.8 120.4H202.1ZM199.1 113.1C200.6 113.1 201.4 112.7 201.4 111.5C201.4 110.3 200.6 109.9 199.1 109.9H197.5V113.1H199.1Z" fill="white"/>
<path d="M219.5 117.8H214.6L213.6 120.4H211.1L216.1 107.8H217.8L222.8 120.4H220.3L219.5 117.8ZM218.7 115.7L217 111.1L215.3 115.7H218.7Z" fill="white"/>
<path d="M231.3 107.8H240.2V109.9H233.5V112.9H239.4V115H233.5V120.4H231.2V107.8H231.3Z" fill="white"/>
<path d="M248 117.8H243.1L242.1 120.4H239.6L244.6 107.8H246.3L251.3 120.4H249L248 117.8ZM247.2 115.7L245.5 111.1L243.8 115.7H247.2Z" fill="white"/>
<path d="M254.4 107.8H256.7V120.4H254.4V107.8Z" fill="white"/>
<path d="M267.1 120.4L264.1 115.2H263.3H262.5V120.4H260.3V107.8H264.4C267.4 107.8 268.7 109.2 268.7 111.4C268.7 113.2 267.9 114.4 266.4 114.9L269.8 120.4H267.1ZM264.2 113.1C265.7 113.1 266.5 112.7 266.5 111.5C266.5 110.3 265.7 109.9 264.2 109.9H262.6V113.1H264.2Z" fill="white"/>
<path d="M273.2 118.1H275.7L273.4 123.1H272L273.2 118.1Z" fill="white"/>
<path d="M282.4 116.8L284.6 116.2C284.8 117.7 285.8 118.6 287.2 118.6C288.5 118.6 289.3 118 289.3 116.9C289.3 116 288.6 115.5 286.8 114.7C284.2 113.7 283.2 112.7 283.2 110.9C283.2 108.9 284.8 107.5 287.1 107.5C288.8 107.5 290.1 108.3 290.9 109.8L289 111C288.6 110.1 287.8 109.6 287 109.6C286.1 109.6 285.4 110.2 285.4 111C285.4 111.8 286 112.3 287.9 113C290.6 114 291.5 115 291.5 116.8C291.5 119.2 289.7 120.7 287.1 120.7C284.7 120.6 282.8 119.1 282.4 116.8Z" fill="white"/>
<path d="M294.7 115.8V107.7H297V115.5C297 117.6 297.7 118.4 299.6 118.4C301.5 118.4 302.2 117.6 302.2 115.5V107.7H304.5V115.7C304.5 119 302.9 120.6 299.7 120.6C296.3 120.7 294.7 119.1 294.7 115.8Z" fill="white"/>
<path d="M306.5 116.8L308.7 116.2C308.9 117.7 309.9 118.6 311.3 118.6C312.6 118.6 313.4 118 313.4 116.9C313.4 116 312.7 115.5 310.9 114.7C308.3 113.7 307.3 112.7 307.3 110.9C307.3 108.9 308.9 107.5 311.2 107.5C312.9 107.5 314.2 108.3 315 109.8L313.1 111C312.7 110.1 311.9 109.6 311.1 109.6C310.2 109.6 309.5 110.2 309.5 111C309.5 111.8 310.1 112.3 312 113C314.7 114 315.6 115 315.6 116.8C315.6 119.2 313.8 120.7 311.2 120.7C308.8 120.6 306.8 119.1 306.5 116.8Z" fill="white"/>
<path d="M321.5 109.9H317.6V107.8H327.8V109.9H323.9V120.4H321.6V109.9H321.5Z" fill="white"/>
<path d="M335.9 117.8H331L330 120.4H327.5L332.5 107.8H334.2L339.2 120.4H336.7L335.9 117.8ZM335.1 115.7L333.4 111.1L331.7 115.7H335.1Z" fill="white"/>
<path d="M342.3 107.8H344.6V120.4H342.3V107.8Z" fill="white"/>
<path d="M358.1 107.8V120.4H355.7L350.4 111.7V120.4H348.1V107.8H350.4L355.7 116.5V107.8H358.1Z" fill="white"/>
<path d="M368.4 117.8H363.5L362.5 120.4H360L365 107.8H366.7L371.7 120.4H369.2L368.4 117.8ZM367.7 115.7L366 111.1L364.3 115.7H367.7Z" fill="white"/>
<path d="M374.8 107.8H379.2C381.7 107.8 383.2 109 383.2 111C383.2 112.2 382.7 113.1 381.8 113.6C383.2 114.1 383.9 115.1 383.9 116.7C383.9 119 382.4 120.4 379.8 120.4H374.8V107.8ZM379.2 112.8C380.3 112.8 380.9 112.3 380.9 111.4C380.9 110.4 380.3 109.9 379.2 109.9H377.1V112.8H379.2ZM379.6 118.3C380.9 118.3 381.6 117.6 381.6 116.5C381.6 115.4 380.9 114.9 379.6 114.9H377.1V118.3H379.6Z" fill="white"/>
<path d="M386.9 107.8H389.2V118.3H394.6V120.4H386.9V107.8Z" fill="white"/>
<path d="M396.9 107.8H405.3V109.9H399.2V112.9H404.9V115H399.2V118.4H405.3V120.5H396.9V107.8Z" fill="white"/>
<path d="M421 117.8H416.1L415.1 120.4H412.6L417.6 107.8H419.3L424.3 120.4H422L421 117.8ZM420.2 115.7L418.5 111.1L416.8 115.7H420.2Z" fill="white"/>
<path d="M436.8 107.8V120.4H434.4L429.1 111.7V120.4H426.8V107.8H429.1L434.4 116.5V107.8H436.8Z" fill="white"/>
<path d="M440.4 107.8H444.1C448.3 107.8 450.7 110.1 450.7 114.2C450.7 118.2 448.4 120.4 444.1 120.4H440.5V107.8H440.4ZM443.9 118.3C447.1 118.3 448.4 117.1 448.4 114.1C448.4 111.2 447.1 109.9 444.1 109.9H442.7V118.4H443.9V118.3Z" fill="white"/>
<path d="M458 114.1C458 110.1 460.4 107.5 464 107.5C467.6 107.5 470 110.1 470 114.1C470 118 467.6 120.7 464 120.7C460.4 120.7 458 118.1 458 114.1ZM467.8 114.1C467.8 111.4 466.3 109.7 464 109.7C461.7 109.7 460.2 111.4 460.2 114.1C460.2 116.8 461.7 118.5 464 118.5C466.3 118.5 467.8 116.8 467.8 114.1Z" fill="white"/>
<path d="M473.4 107.8H477.5C480.3 107.8 481.8 109 481.8 111.4C481.8 113.8 480.3 115.1 477.5 115.1H475.6V120.3H473.4V107.8ZM477.3 113.1C478.9 113.1 479.6 112.6 479.6 111.5C479.6 110.4 478.9 109.9 477.3 109.9H475.7V113.1H477.3Z" fill="white"/>
<path d="M484.3 107.8H492.7V109.9H486.6V112.9H492.3V115H486.6V118.4H492.7V120.5H484.3V107.8Z" fill="white"/>
<path d="M505.7 107.8V120.4H503.3L498 111.7V120.4H495.7V107.8H498L503.3 116.5V107.8H505.7Z" fill="white"/>
<path d="M514.6 107.8H523.5V109.9H516.8V112.9H522.7V115H516.8V120.4H514.5V107.8H514.6Z" fill="white"/>
<path d="M525.2 115.8V107.7H527.5V115.5C527.5 117.6 528.2 118.4 530.1 118.4C532 118.4 532.7 117.6 532.7 115.5V107.7H535V115.7C535 119 533.4 120.6 530.2 120.6C526.9 120.7 525.2 119.1 525.2 115.8Z" fill="white"/>
<path d="M540.8 109.9H536.9V107.8H547V109.9H543.1V120.4H540.8V109.9Z" fill="white"/>
<path d="M549.5 115.8V107.7H551.8V115.5C551.8 117.6 552.5 118.4 554.4 118.4C556.3 118.4 557 117.6 557 115.5V107.7H559.3V115.7C559.3 119 557.7 120.6 554.5 120.6C551.2 120.7 549.5 119.1 549.5 115.8Z" fill="white"/>
<path d="M569.6 120.4L566.6 115.2H565.8H565V120.4H562.8V107.8H566.9C569.9 107.8 571.2 109.2 571.2 111.4C571.2 113.2 570.4 114.4 568.9 114.9L572.3 120.4H569.6ZM566.6 113.1C568.1 113.1 568.9 112.7 568.9 111.5C568.9 110.3 568.1 109.9 566.6 109.9H565V113.1H566.6Z" fill="white"/>
<path d="M574.7 107.8H583.1V109.9H577V112.9H582.7V115H577V118.4H583.1V120.5H574.7V107.8Z" fill="white"/>
</g>
<defs>
<clipPath id="clip0_134_134">
<rect width="587.7" height="166.1" fill="white"/>
</clipPath>
</defs>
</svg>
