<?xml version="1.0" encoding="UTF-8"?>
<svg width="40px" height="44px" viewBox="0 0 40 44" version="1.1" xmlns="http://www.w3.org/2000/svg" xmlns:xlink="http://www.w3.org/1999/xlink">
    <!-- Generator: Sketch 61.2 (89653) - https://sketch.com -->
    <title>Group 89</title>
    <desc>Created with Sketch.</desc>
    <g id="Page-3" stroke="none" stroke-width="1" fill="none" fill-rule="evenodd">
        <g id="OKFN_Brandguide_2023" transform="translate(-502.000000, -409.000000)">
            <g id="Group-89" transform="translate(502.000000, 409.000000)">
                <g id="Group-88">
                    <path d="M26.8736461,16.3704033 C27.9600658,17.456823 28.6843457,18.8724609 28.9312593,20.4033251 L32.0752922,17.2592922 L39.9436049,9.39097942 L33.85307,3.30044444 L25.9847572,11.1687572 L25.9847572,0.0411851852 L17.3757037,0.0411851852 L17.3757037,15.6132016 C20.289284,13.5062058 24.3222058,13.818963 26.8736461,16.3704033" id="Fill-82" fill="#00D1FF"></path>
                    <path d="M28.9312593,22.7242469 C28.3057449,26.7242469 24.5526584,29.4567572 20.5526584,28.8147819 C19.4003951,28.6337119 18.3139753,28.1892675 17.3921646,27.4979095 L17.3921646,43.0699259 L26.0012181,43.0699259 L26.0012181,31.9423539 L33.8695309,39.8106667 L39.9600658,33.7201317 L32.0917531,25.8518189 L28.9312593,22.7242469 Z" id="Fill-84" fill="#00D1FF"></path>
                    <path d="M28.9312593,22.7242469 C28.289284,26.7242469 24.5197366,29.4567572 20.5197366,28.8147819 C16.5197366,28.1728066 13.7872263,24.4032593 14.4292016,20.4032593 C14.6761152,18.8723951 15.4003951,17.4567572 16.4868148,16.3703374 C16.7666502,16.0905021 17.0629465,15.8435885 17.3757037,15.6131358 C20.6514239,13.2263045 25.2275556,13.9505844 27.6143868,17.2263045 C28.289284,18.1645761 28.7501893,19.2509959 28.9312593,20.4032593 L32.0752922,17.2592263 L39.9436049,9.39091358 L33.85307,3.3003786 L25.9847572,11.1686914 L25.9847572,0.0411193416 L17.3757037,0.0411193416 L17.3757037,11.1686914 L9.50739095,3.3003786 L3.41685597,9.39091358 L11.2851687,17.2592263 L0.157596708,17.2592263 L0.157596708,25.8682798 L11.2851687,25.8682798 L3.41685597,33.7365926 L9.50739095,39.8271276 L17.3757037,31.9588148 L17.3757037,43.0863868 L25.9847572,43.0863868 L25.9847572,31.9588148 L33.85307,39.8271276 L39.9436049,33.7365926 L32.0752922,25.8682798 L28.9312593,22.7242469 Z M27.1534815,12.3374156 L33.8695309,5.62136626 L37.6390782,9.39091358 L30.9230288,16.106963 L29.6390782,17.3909136 C29.2110947,16.5843292 28.6843457,15.8600494 28.0423704,15.2180741 C27.4003951,14.5760988 26.6761152,14.0328889 25.8859918,13.6213663 L27.1534815,12.3374156 Z M24.3551276,1.68720988 L24.3551276,12.9793909 C22.6267325,12.452642 20.7666502,12.452642 19.0382551,12.9793909 L19.0382551,1.68720988 L24.3551276,1.68720988 Z M5.75430453,9.39091358 L9.50739095,5.62136626 L15.7296132,11.8435885 L15.7296132,14.8230123 C15.581465,14.9546996 15.4497778,15.0699259 15.3180905,15.2016132 C14.6761152,15.8435885 14.1329053,16.5678683 13.7213827,17.3744527 L12.453893,16.106963 L5.75430453,9.39091358 Z M1.80368724,24.2221893 L1.80368724,18.9053169 L13.0958683,18.9053169 C12.5691193,20.6337119 12.5691193,22.4937942 13.0958683,24.2221893 L1.80368724,24.2221893 Z M15.7460741,31.2674568 L9.50739095,37.489679 L5.73784362,33.7201317 L12.453893,27.0370041 L13.7213827,25.7695144 C14.1493663,26.5596379 14.6761152,27.3003786 15.3180905,27.925893 C15.4497778,28.0575802 15.581465,28.1892675 15.7296132,28.3044938 L15.7460741,31.2674568 Z M24.3386667,31.9588148 L24.3386667,41.4402963 L19.0053333,41.4402963 L19.0053333,30.1481152 C20.7337284,30.6748642 22.5938107,30.6748642 24.3222058,30.1481152 L24.3386667,31.9588148 Z M33.85307,37.5061399 L27.1534815,30.7900905 L25.8859918,29.5226008 C27.4826996,28.6666337 28.799572,27.3662222 29.6555391,25.7530535 L30.9394897,27.0370041 L37.6555391,33.7530535 L33.85307,37.5061399 Z" id="Fill-86" fill="#000000"></path>
                </g>
            </g>
        </g>
    </g>
</svg>